<svg width="86" height="86" viewBox="0 0 86 86" fill="none" xmlns="http://www.w3.org/2000/svg">
<path fill-rule="evenodd" clip-rule="evenodd" d="M43 82C64.5391 82 82 64.5391 82 43C82 21.4609 64.5391 4 43 4C21.4609 4 4 21.4609 4 43C4 64.5391 21.4609 82 43 82ZM43 86C66.7482 86 86 66.7482 86 43C86 19.2518 66.7482 0 43 0C19.2518 0 0 19.2518 0 43C0 66.7482 19.2518 86 43 86Z" fill="#FF575C"/>
<path fill-rule="evenodd" clip-rule="evenodd" d="M64.9411 28.0589C66.0782 29.196 66.0782 31.0397 64.9411 32.1768L38.7353 58.3825C37.5982 59.5196 35.7546 59.5196 34.6175 58.3825C33.4804 57.2454 33.4804 55.4018 34.6175 54.2646L60.8232 28.0589C61.9603 26.9218 63.804 26.9218 64.9411 28.0589Z" fill="#FF575C"/>
<path fill-rule="evenodd" clip-rule="evenodd" d="M38.7353 58.3825C37.5982 59.5196 35.7546 59.5196 34.6175 58.3825L20.0589 43.8238C18.9218 42.6867 18.9218 40.843 20.0589 39.7059C21.196 38.5688 23.0397 38.5688 24.1768 39.7059L38.7355 54.2647C39.8726 55.4018 39.8725 57.2454 38.7353 58.3825Z" fill="#FF575C"/>
</svg>
