<svg width="86" height="86" viewBox="0 0 86 86" fill="none" xmlns="http://www.w3.org/2000/svg">
<path fill-rule="evenodd" clip-rule="evenodd" d="M64.9411 31.0589C66.0782 32.196 66.0782 34.0397 64.9411 35.1768L38.7353 61.3825C37.5982 62.5196 35.7546 62.5196 34.6175 61.3825C33.4804 60.2454 33.4804 58.4018 34.6175 57.2646L60.8232 31.0589C61.9603 29.9218 63.804 29.9218 64.9411 31.0589Z" fill="white"/>
<path fill-rule="evenodd" clip-rule="evenodd" d="M38.7353 61.3825C37.5982 62.5196 35.7546 62.5196 34.6175 61.3825L20.0589 46.8238C18.9218 45.6867 18.9218 43.843 20.0589 42.7059C21.196 41.5688 23.0397 41.5688 24.1768 42.7059L38.7355 57.2647C39.8726 58.4018 39.8725 60.2454 38.7353 61.3825Z" fill="white"/>
<path fill-rule="evenodd" clip-rule="evenodd" d="M43 82C64.5391 82 82 64.5391 82 43C82 21.4609 64.5391 4 43 4C21.4609 4 4 21.4609 4 43C4 64.5391 21.4609 82 43 82ZM43 86C66.7482 86 86 66.7482 86 43C86 19.2518 66.7482 0 43 0C19.2518 0 0 19.2518 0 43C0 66.7482 19.2518 86 43 86Z" fill="white"/>
</svg>
