<svg width="86" height="86" viewBox="0 0 86 86" fill="none" xmlns="http://www.w3.org/2000/svg">
<path fill-rule="evenodd" clip-rule="evenodd" d="M43 82C64.5391 82 82 64.5391 82 43C82 21.4609 64.5391 4 43 4C21.4609 4 4 21.4609 4 43C4 64.5391 21.4609 82 43 82ZM43 86C66.7482 86 86 66.7482 86 43C86 19.2518 66.7482 0 43 0C19.2518 0 0 19.2518 0 43C0 66.7482 19.2518 86 43 86Z" fill="#FF575C"/>
<path fill-rule="evenodd" clip-rule="evenodd" d="M60.5765 26.1516C61.7648 27.3398 61.7648 29.2664 60.5765 30.4547L30.4548 60.5764C29.2665 61.7647 27.3399 61.7647 26.1517 60.5764C24.9634 59.3881 24.9634 57.4616 26.1517 56.2733L56.2734 26.1516C57.4617 24.9633 59.3882 24.9633 60.5765 26.1516Z" fill="#FF575C"/>
<path fill-rule="evenodd" clip-rule="evenodd" d="M60.5764 60.5764C59.3881 61.7647 57.4616 61.7647 56.2733 60.5764L26.1516 30.4547C24.9633 29.2664 24.9633 27.3398 26.1516 26.1516C27.3398 24.9633 29.2664 24.9633 30.4547 26.1516L60.5764 56.2733C61.7647 57.4616 61.7647 59.3881 60.5764 60.5764Z" fill="#FF575C"/>
</svg>
